<svg width="33" height="33" viewBox="0 0 33 33" fill="none" xmlns="http://www.w3.org/2000/svg">
<path d="M13.6382 18.172L12.5602 19.684C13.3003 20.4361 14.3459 20.9846 15.749 21.1299V23.2654H17.249V21.1276C19.2673 20.8968 20.2462 19.7032 20.2462 18.172C20.2462 16.0593 18.2885 15.5966 16.749 15.2327L16.7184 15.2254C15.7225 14.9904 14.8842 14.7925 14.8842 14.196C14.8842 13.636 15.3602 13.258 16.2142 13.258C17.1662 13.258 18.1742 13.58 18.9302 14.28L20.0362 12.824C19.2954 12.1394 18.3568 11.7157 17.249 11.5745V9.75H15.749V11.5613C13.9373 11.7883 12.8542 12.969 12.8542 14.364C12.8542 16.4634 14.7618 16.9004 16.2783 17.2478L16.3402 17.262L16.4167 17.2809C17.4052 17.5241 18.2302 17.7272 18.2302 18.396C18.2302 18.928 17.6982 19.432 16.6062 19.432C15.3182 19.432 14.2962 18.858 13.6382 18.172Z" fill="black" fill-opacity="0.9"/>
<path d="M25.499 18C26.3274 18 26.999 17.3284 26.999 16.5C26.999 15.6716 26.3274 15 25.499 15C24.6706 15 23.999 15.6716 23.999 16.5C23.999 17.3284 24.6706 18 25.499 18Z" fill="black" fill-opacity="0.9"/>
<path d="M8.999 16.5C8.999 17.3284 8.32743 18 7.499 18C6.67057 18 5.999 17.3284 5.999 16.5C5.999 15.6716 6.67057 15 7.499 15C8.32743 15 8.999 15.6716 8.999 16.5Z" fill="black" fill-opacity="0.9"/>
<path fill-rule="evenodd" clip-rule="evenodd" d="M0.75 5.99667H32.249V27.0033H0.75V5.99667ZM2.25 7.49667V25.5033H30.749V7.49667H2.25Z" fill="black" fill-opacity="0.9"/>
</svg>
