<svg width="60" height="42" viewBox="0 0 60 42" fill="none" xmlns="http://www.w3.org/2000/svg">
<path d="M30.0073 0.779846C13.7486 0.779846 0.569733 9.21123 0.569733 19.6129C0.569733 30.0145 13.7486 39.2625 30.0073 39.2625C46.266 39.2625 59.4444 30.0138 59.4444 19.6129C59.4444 9.21197 46.2652 0.779846 30.0073 0.779846Z" fill="#00BCFF"/>
<path d="M20.4288 13.7915C20.4141 13.8201 20.1265 14.1177 20.313 14.357C20.7679 14.9386 22.1741 15.272 23.5961 14.9528C24.4427 14.7629 25.5277 13.8994 26.579 13.0654C27.5825 12.1539 28.7338 11.4198 29.9836 10.8945C30.782 10.6021 31.6542 10.5793 32.4668 10.8295C33.2919 11.1361 34.0578 11.583 34.7306 12.1505C36.7039 13.6345 44.6396 20.5619 46.0112 21.7589C50.2247 20.0066 54.5871 18.6361 59.0458 17.6641C58.4659 14.1083 56.3274 10.7186 53.0465 8.05496C48.4735 9.97571 42.5125 11.1258 37.0483 8.45751C35.1917 7.61698 33.1843 7.16048 31.1467 7.11544C26.8115 7.2163 24.9335 9.09232 22.9462 11.0785L20.4288 13.7915Z" fill="white"/>
<path d="M45.689 22.5127C45.5954 22.4291 36.3581 14.3456 34.2649 12.7725C33.5357 12.1238 32.6365 11.6968 31.6729 11.5417C31.2581 11.5087 30.8407 11.5488 30.4397 11.6603C29.2038 12.1258 28.0604 12.8072 27.0629 13.6727C25.8933 14.605 24.7898 15.4824 23.7653 15.712C22.5273 15.9663 21.2393 15.7728 20.1307 15.1659C19.8712 15.0071 19.662 14.7779 19.5275 14.5049C19.4535 14.2958 19.4433 14.0693 19.4983 13.8544C19.5533 13.6394 19.6711 13.4457 19.8365 13.2978L22.386 10.5402C22.6827 10.2448 22.9806 9.94843 23.287 9.6574C22.5007 9.77559 21.724 9.9505 20.9629 10.1808C20.0865 10.4719 19.1745 10.642 18.2521 10.6864C17.3225 10.5923 16.3987 10.4479 15.4848 10.2538C12.7597 9.61433 10.0996 8.72408 7.53857 7.59445C3.9142 10.2926 1.55413 13.6055 0.853752 17.3213C1.37449 17.4588 2.73906 17.77 3.09171 17.8482C11.2938 19.6719 13.848 21.5505 14.3114 21.9429C14.584 21.6361 14.9226 21.3951 15.3017 21.238C15.6808 21.081 16.0906 21.0119 16.5003 21.036C16.9099 21.0602 17.3088 21.1769 17.6668 21.3774C18.0249 21.5779 18.3328 21.857 18.5675 22.1936C19.1206 21.7464 19.811 21.5035 20.5223 21.5057C20.9219 21.5096 21.3182 21.579 21.6953 21.7113C22.0608 21.8281 22.3972 22.0217 22.6819 22.279C22.9666 22.5362 23.1931 22.8513 23.3463 23.2032C23.7046 23.0408 24.094 22.958 24.4874 22.9604C24.958 22.9664 25.4224 23.0688 25.8518 23.2614C26.449 23.5413 26.9334 24.0157 27.2259 24.6068C27.5184 25.1979 27.6015 25.8708 27.4618 26.5154C27.5703 26.5037 27.6794 26.4979 27.7885 26.4981C28.6505 26.4995 29.4769 26.8427 30.0863 27.4524C30.6957 28.0622 31.0385 28.8887 31.0395 29.7508C31.0396 30.287 30.9058 30.8148 30.6505 31.2862C31.4994 31.8051 32.48 32.0677 33.4746 32.0426C33.7226 32.0427 33.9679 31.9916 34.1952 31.8924C34.4225 31.7933 34.6269 31.6483 34.7956 31.4665C34.8774 31.3513 34.9626 31.2164 34.8833 31.1191L32.569 28.5488C32.569 28.5488 32.1883 28.1884 32.3141 28.0495C32.444 27.9065 32.6795 28.1116 32.8466 28.2509C34.0241 29.2343 35.4615 30.719 35.4615 30.719C35.4868 30.7351 35.5814 30.9233 36.1131 31.0187C36.431 31.074 36.7567 31.0647 37.071 30.9914C37.3852 30.9181 37.6815 30.7823 37.9421 30.592C38.0897 30.4684 38.2246 30.3304 38.3448 30.18C38.3366 30.1881 38.3276 30.1952 38.3178 30.2011C38.48 29.9768 38.5617 29.7043 38.5497 29.4278C38.5376 29.1512 38.4326 28.8869 38.2516 28.6775L35.5498 25.6433C35.5498 25.6433 35.1632 25.2855 35.2958 25.1431C35.4131 25.018 35.6613 25.2064 35.8309 25.3469C36.6859 26.0624 37.8946 27.2744 39.0529 28.4102C39.439 28.6714 39.898 28.8034 40.3639 28.7873C40.8298 28.7711 41.2786 28.6076 41.6458 28.3203C41.9465 28.1543 42.1953 27.9082 42.3646 27.6093C42.5339 27.3104 42.6169 26.9704 42.6046 26.6271C42.5462 26.1978 42.3453 25.8006 42.0341 25.4993L38.3448 21.7882C38.3448 21.7882 37.954 21.4552 38.0924 21.2872C38.2055 21.1454 38.457 21.3492 38.6241 21.4881C39.799 22.4719 42.9811 25.3904 42.9811 25.3904C43.3561 25.6324 43.7947 25.757 44.2409 25.7481C44.687 25.7392 45.1204 25.5973 45.4854 25.3406C45.7198 25.2034 45.9172 25.0111 46.0605 24.7804C46.2037 24.5496 46.2885 24.2874 46.3074 24.0164C46.3183 23.7361 46.2687 23.4566 46.162 23.1972C46.0553 22.9377 45.894 22.7043 45.689 22.5127V22.5127Z" fill="white"/>
<path d="M27.788 27.2161C27.3546 27.2769 26.9266 27.3717 26.5081 27.4997C26.4625 27.4702 26.5431 27.2401 26.5963 27.1076C26.652 26.9763 27.4055 24.7082 25.5683 23.9211C25.1571 23.7005 24.6858 23.6185 24.2243 23.6873C23.7629 23.7561 23.336 23.9721 23.0071 24.303C22.9302 24.3833 22.8953 24.3766 22.8867 24.2752C22.8758 23.8517 22.7325 23.4423 22.4771 23.1044C22.2216 22.7665 21.8668 22.5171 21.4624 22.3911C20.8897 22.2149 20.2753 22.2284 19.7109 22.4296C19.1464 22.6308 18.662 23.009 18.33 23.5079C18.2708 23.0607 18.0626 22.6465 17.739 22.3323C17.4155 22.018 16.9954 21.822 16.5467 21.776C16.098 21.73 15.6469 21.8366 15.2662 22.0786C14.8856 22.3206 14.5977 22.6839 14.449 23.1097C14.3003 23.5356 14.2995 23.9992 14.4467 24.4255C14.594 24.8519 14.8807 25.2162 15.2605 25.4595C15.6403 25.7028 16.091 25.8109 16.5399 25.7664C16.9887 25.7219 17.4095 25.5274 17.7341 25.2143C17.7457 25.2249 17.7501 25.2437 17.7444 25.2818C17.6085 25.9031 17.7008 26.5526 18.0045 27.1115C18.3082 27.6703 18.8029 28.1012 19.3981 28.3252C19.7197 28.4492 20.0681 28.4867 20.4087 28.4342C20.7493 28.3816 21.0702 28.2407 21.3394 28.0255C21.4989 27.9133 21.5247 27.9605 21.5023 28.1108C21.434 28.5759 21.5209 29.572 22.9173 30.1375C23.2633 30.307 23.6547 30.3606 24.0335 30.2902C24.4123 30.2198 24.7583 30.0292 25.0203 29.7466C25.2001 29.5837 25.2491 29.6103 25.2583 29.8631C25.2808 30.3586 25.4483 30.8364 25.7399 31.2375C26.0315 31.6386 26.4345 31.9452 26.8988 32.1194C27.3631 32.2935 27.8684 32.3274 28.3518 32.2169C28.8352 32.1065 29.2756 31.8565 29.6182 31.498C29.9608 31.1395 30.1907 30.6883 30.2792 30.2003C30.3677 29.7124 30.311 29.2092 30.1161 28.7532C29.9213 28.2972 29.5968 27.9084 29.183 27.6352C28.7692 27.3619 28.2842 27.2162 27.7883 27.2161H27.788Z" fill="white"/>
<path d="M30.0022 0C13.4338 0 0.00338383 8.81283 0.00338383 19.6225C0.00338383 19.9021 0 20.6734 0 20.7713C0 32.2403 11.7389 41.5278 29.9983 41.5278C48.3681 41.5278 60 32.2423 60 20.7734V19.6225C59.9996 8.81283 46.5691 0 30.0022 0ZM58.6474 17.4478C54.3248 18.4044 50.1047 19.7763 46.0459 21.5445C43.1998 19.0611 36.6237 13.3423 34.8429 12.0061C34.1524 11.4252 33.3668 10.9681 32.5208 10.6546C32.152 10.5384 31.7679 10.4784 31.3813 10.4766C30.8891 10.4831 30.4009 10.5654 29.9338 10.7206C28.683 11.2398 27.5305 11.9696 26.5262 12.8781L26.4691 12.9233C25.4357 13.745 24.3675 14.595 23.5594 14.7748C23.2058 14.8545 22.8445 14.895 22.482 14.8955C22.1183 14.9258 21.7523 14.8839 21.4049 14.7721C21.0575 14.6603 20.7357 14.4809 20.4579 14.2442C20.4076 14.1797 20.4409 14.0758 20.558 13.9265L20.5731 13.9062L23.0773 11.2084C25.0382 9.24731 26.8905 7.39564 31.1533 7.2978C31.2242 7.29574 31.2959 7.29441 31.3659 7.29441C33.302 7.37341 35.2049 7.82412 36.9707 8.62199C39.3433 9.80805 41.9561 10.4347 44.6085 10.4538C47.5099 10.4037 50.3655 9.72081 52.9757 8.45279C56.017 11.0107 58.0341 14.0914 58.6474 17.4478ZM30.0073 1.15875C38.8013 1.15875 46.6705 3.6795 51.961 7.64967C49.6527 8.70413 47.1517 9.2711 44.6144 9.31514C42.1321 9.29492 39.6875 8.70645 37.4678 7.59486C35.5487 6.71889 33.476 6.22915 31.3678 6.15354C31.2877 6.15354 31.2067 6.15479 31.1273 6.15656C28.5879 6.11939 26.1197 6.99571 24.1723 8.62589C22.9932 8.68768 21.8268 8.90061 20.7019 9.25945C19.9113 9.52319 19.089 9.68073 18.2568 9.72792C17.9432 9.72792 17.3791 9.69923 17.3285 9.69702C14.3366 9.17031 11.402 8.35813 8.56498 7.27161C13.8448 3.51935 21.4941 1.15875 30.0073 1.15875ZM7.52695 8.05494C11.1858 9.55158 15.6248 10.7073 17.0285 10.7982C17.4201 10.824 17.8372 10.8683 18.2546 10.8692C19.1935 10.8236 20.1219 10.6511 21.0144 10.3563C21.5458 10.2074 22.1318 10.0448 22.7486 9.92714C22.5835 10.0883 22.4194 10.2521 22.2543 10.4175L19.7111 13.1689C19.5177 13.3404 19.3809 13.5665 19.3187 13.8174C19.2566 14.0683 19.272 14.3321 19.3629 14.574C19.5105 14.88 19.7425 15.1375 20.0315 15.3161C20.8542 15.7811 21.7863 16.0176 22.7312 16.001C23.0932 16.0036 23.4544 15.9657 23.808 15.8883C24.8746 15.6495 25.9933 14.7581 27.1776 13.8161C28.1587 12.9689 29.2794 12.2983 30.4898 11.8341C30.7912 11.7541 31.1013 11.7115 31.4131 11.7075C31.4929 11.7069 31.5727 11.7117 31.6519 11.7219C32.5834 11.8748 33.4522 12.2893 34.1571 12.9171C36.2453 14.4863 45.4835 22.569 45.5745 22.6488C45.758 22.8228 45.9024 23.0338 45.998 23.2679C46.0936 23.502 46.1383 23.7538 46.1291 24.0065C46.1124 24.2488 46.0362 24.4832 45.9074 24.6891C45.7786 24.895 45.601 25.066 45.3905 25.187C45.0313 25.427 44.6105 25.5582 44.1786 25.5647C43.7993 25.5651 43.4279 25.4575 43.1075 25.2546C43.0737 25.2267 39.9085 22.3238 38.7428 21.3482C38.5971 21.1941 38.4051 21.0915 38.196 21.0561C38.1495 21.0552 38.1035 21.0651 38.0615 21.0848C38.0195 21.1046 37.9826 21.1338 37.9537 21.1702C37.7705 21.3959 37.9758 21.709 38.2179 21.9142L41.9153 25.6329C42.1911 25.9016 42.3708 26.2535 42.4268 26.6345C42.4363 26.9461 42.3593 27.2543 42.2044 27.5249C42.0495 27.7955 41.8226 28.0179 41.549 28.1674C41.1645 28.4383 40.7083 28.5891 40.2381 28.6008C39.8625 28.6008 39.4954 28.4893 39.1832 28.2804L38.653 27.7581C37.6832 26.8043 36.6821 25.8175 35.9496 25.2064C35.8016 25.0539 35.6082 24.9535 35.3984 24.9202C35.3548 24.9195 35.3115 24.9279 35.2713 24.9451C35.2312 24.9623 35.1951 24.9877 35.1655 25.0198C35.082 25.1127 35.0236 25.2794 35.233 25.5563C35.2894 25.6307 35.3518 25.7003 35.4196 25.7643L38.1171 28.7953C38.2729 28.9717 38.3639 29.1961 38.375 29.4312C38.3861 29.6664 38.3168 29.8983 38.1784 30.0887L38.0827 30.2094C38.0037 30.2949 37.9198 30.3758 37.8313 30.4516C37.4496 30.7319 36.9862 30.8787 36.5127 30.8695C36.3905 30.87 36.2685 30.8597 36.1482 30.8386C35.9514 30.8231 35.7649 30.7445 35.6164 30.6146L35.5826 30.5804C35.4359 30.428 34.076 29.0394 32.951 28.1C32.8114 27.9515 32.6269 27.853 32.4259 27.8193C32.3799 27.8189 32.3343 27.8284 32.2922 27.8471C32.2501 27.8658 32.2125 27.8933 32.182 27.9278C31.9601 28.1717 32.2943 28.5359 32.436 28.6698L34.736 31.2084C34.7164 31.2646 34.6873 31.3169 34.65 31.3632C34.5674 31.4773 34.2887 31.7566 33.4539 31.8613C33.3526 31.8742 33.2505 31.8804 33.1484 31.8798C32.3566 31.829 31.5864 31.6005 30.8949 31.2113C31.1414 30.6883 31.2517 30.1114 31.2157 29.5343C31.1797 28.9572 30.9985 28.3986 30.6889 27.9102C30.3793 27.4219 29.9515 27.0196 29.4449 26.7408C28.9384 26.462 28.3697 26.3157 27.7915 26.3154C27.7511 26.3154 27.708 26.3167 27.6676 26.318C27.7661 25.6645 27.6495 24.9967 27.3354 24.4152C27.0213 23.8337 26.5267 23.3701 25.9262 23.0943C25.4745 22.8916 24.986 22.784 24.491 22.778C24.1314 22.7762 23.7746 22.8409 23.4385 22.9687C23.0888 22.2896 22.4846 21.7765 21.7578 21.5415C21.362 21.4012 20.9456 21.3279 20.5257 21.3247C19.837 21.3208 19.1649 21.5361 18.6067 21.9395C18.353 21.6207 18.0347 21.3591 17.6728 21.1719C17.3109 20.9847 16.9136 20.876 16.5068 20.8531C16.1 20.8302 15.6929 20.8935 15.3123 21.0389C14.9317 21.1843 14.5861 21.4085 14.2981 21.6968C13.5816 21.149 10.74 19.3439 3.13372 17.6169C2.7704 17.5346 1.9457 17.2984 1.42628 17.1461C2.13983 13.7316 4.30938 10.6134 7.5271 8.05494H7.52695ZM21.6358 27.8559L21.5535 27.7823H21.4704C21.3849 27.7887 21.3036 27.8216 21.2378 27.8764C20.911 28.1279 20.513 28.2695 20.1008 28.281C19.8836 28.2793 19.6686 28.2375 19.4665 28.1578C18.9083 27.9494 18.4447 27.5455 18.1618 27.0211C17.8789 26.4967 17.796 25.8874 17.9285 25.3064C17.9376 25.2642 17.9352 25.2203 17.9216 25.1792C17.9081 25.1382 17.8838 25.1015 17.8514 25.073L17.7269 24.9713L17.6105 25.0823C17.2716 25.4114 16.8177 25.5954 16.3453 25.5951C15.9929 25.5966 15.6475 25.4962 15.3507 25.3062C15.054 25.1162 14.8183 24.8445 14.6722 24.5238C14.526 24.2031 14.4756 23.847 14.5269 23.4983C14.5781 23.1496 14.729 22.8232 14.9613 22.5581C15.1935 22.2931 15.4974 22.1007 15.8363 22.0042C16.1753 21.9076 16.5348 21.911 16.8719 22.0139C17.209 22.1167 17.5092 22.3147 17.7365 22.584C17.9638 22.8534 18.1085 23.1826 18.1533 23.5322L18.2163 24.0238L18.4864 23.6076C18.7907 23.1354 19.2428 22.7771 19.7721 22.5888C20.3014 22.4004 20.8781 22.3926 21.4123 22.5665C21.7813 22.6823 22.1047 22.9109 22.3371 23.22C22.5695 23.5292 22.6992 23.9034 22.7079 24.2901C22.7277 24.5285 22.8974 24.5402 22.9303 24.5402C22.9713 24.5374 23.0114 24.526 23.0478 24.5069C23.0843 24.4878 23.1164 24.4614 23.1422 24.4293C23.3162 24.2477 23.5255 24.1035 23.7572 24.0057C23.9889 23.9079 24.2382 23.8584 24.4897 23.8603C24.8382 23.868 25.1816 23.9456 25.4995 24.0884C27.2231 24.8278 26.4415 27.0183 26.4323 27.0406C26.2836 27.4036 26.2778 27.564 26.4171 27.6564L26.485 27.6884H26.5356C26.6505 27.6755 26.763 27.6461 26.8695 27.6011C27.1631 27.485 27.4734 27.4165 27.7886 27.3981H27.7895C28.0983 27.3982 28.404 27.4591 28.6892 27.5773C28.9744 27.6955 29.2336 27.8688 29.4518 28.0872C29.6701 28.3056 29.8432 28.5648 29.9613 28.8501C30.0793 29.1354 30.1401 29.4412 30.14 29.75C30.1399 30.0587 30.079 30.3645 29.9608 30.6497C29.8426 30.9349 29.6693 31.1941 29.4509 31.4124C29.2325 31.6306 28.9733 31.8038 28.688 31.9219C28.4028 32.0399 28.097 32.1007 27.7883 32.1006C27.1826 32.1043 26.5993 31.8723 26.1616 31.4537C25.7239 31.0351 25.466 30.4626 25.4426 29.8574C25.4392 29.7498 25.4279 29.4637 25.1851 29.4637C25.0748 29.4764 24.9732 29.53 24.9003 29.6139C24.6003 29.9333 24.1857 30.1205 23.7477 30.1343C23.4862 30.129 23.2282 30.073 22.9879 29.9695C21.6491 29.4259 21.6307 28.5067 21.6848 28.1369C21.698 28.0894 21.7004 28.0395 21.6919 27.9909C21.6835 27.9423 21.6643 27.8962 21.6358 27.8559V27.8559ZM30.0071 38.0669C14.0763 38.067 1.16227 29.8044 1.16227 19.6128C1.16475 19.2054 1.18795 18.7984 1.23179 18.3934C1.35897 18.4238 2.62416 18.7263 2.88618 18.7852C10.6561 20.5114 13.2236 22.306 13.6575 22.6453C13.473 23.0877 13.4006 23.5689 13.4467 24.046C13.4928 24.5231 13.656 24.9815 13.9219 25.3804C14.1877 25.7793 14.5479 26.1063 14.9704 26.3325C15.393 26.5588 15.8649 26.6771 16.3442 26.6771C16.5234 26.6774 16.7021 26.6609 16.8782 26.6278C16.9929 27.2048 17.2557 27.7421 17.6408 28.1869C18.0258 28.6317 18.5199 28.9688 19.0745 29.1651C19.405 29.2949 19.7566 29.3627 20.1117 29.3651C20.3352 29.3664 20.5579 29.339 20.7744 29.2833C21.0412 29.8449 21.4579 30.322 21.9786 30.6619C22.4992 31.0017 23.1036 31.1912 23.7251 31.2095C24.0284 31.2095 24.3292 31.1558 24.6137 31.0508C24.8292 31.5781 25.1727 32.0433 25.6132 32.4045C26.0536 32.7656 26.5772 33.0113 27.1364 33.1192C27.6957 33.2271 28.273 33.1939 28.8162 33.0226C29.3594 32.8513 29.8514 32.5473 30.2476 32.138C31.1338 32.6544 32.1303 32.952 33.1545 33.0061C33.3015 33.0057 33.4484 32.9964 33.5943 32.9783C33.9725 32.9668 34.3438 32.8748 34.6836 32.7085C35.0234 32.5422 35.3239 32.3055 35.565 32.0139C35.6106 31.9513 35.6513 31.8853 35.6868 31.8164C35.9887 31.9084 36.302 31.9574 36.6176 31.962C37.3 31.9484 37.9593 31.7126 38.4956 31.2905C39.0618 30.9188 39.4597 30.3398 39.6038 29.6779C39.6051 29.6706 39.606 29.6632 39.6064 29.6558C39.8134 29.6979 40.024 29.7191 40.2352 29.7191C40.9247 29.7106 41.5962 29.4976 42.1647 29.1072C42.5971 28.8565 42.9538 28.4938 43.1975 28.0573C43.4411 27.6209 43.5625 27.1268 43.549 26.6272C43.7586 26.6708 43.9721 26.693 44.1862 26.6934C44.8296 26.6864 45.4573 26.4932 45.9932 26.1371C46.3494 25.9195 46.649 25.6207 46.8676 25.2652C47.0862 24.9096 47.2176 24.5074 47.2511 24.0914C47.2938 23.5125 47.1542 22.9347 46.8519 22.4391C50.7276 20.8571 54.7295 19.6037 58.8152 18.6924C58.8387 18.9976 58.8516 19.3045 58.8516 19.6134C58.8516 29.8044 45.9378 38.067 30.0073 38.067L30.0071 38.0669Z" fill="#0A0080"/>
</svg>
