<svg width="16" height="16" viewBox="0 0 16 16" fill="none" xmlns="http://www.w3.org/2000/svg">
<path fill-rule="evenodd" clip-rule="evenodd" d="M8.005 11C9.66186 11 11.005 9.65686 11.005 8C11.005 6.34315 9.66186 5 8.005 5C6.34815 5 5.005 6.34315 5.005 8C5.005 9.65686 6.34815 11 8.005 11ZM8.005 9.8C7.01089 9.8 6.205 8.99412 6.205 8C6.205 7.00589 7.01089 6.2 8.005 6.2C8.99912 6.2 9.805 7.00589 9.805 8C9.805 8.99412 8.99912 9.8 8.005 9.8Z" fill="black" fill-opacity="0.9"/>
<path fill-rule="evenodd" clip-rule="evenodd" d="M0.201004 2.60054H15.799V13.3995H0.201004V2.60054ZM1.401 3.80054V12.1995H14.599V3.80054H1.401Z" fill="black" fill-opacity="0.9"/>
</svg>
