<svg width="16" height="16" viewBox="0 0 16 16" fill="none" xmlns="http://www.w3.org/2000/svg">
<path d="M6.2 10.9997H2.602V9.79973H6.2V10.9997Z" fill="black" fill-opacity="0.9"/>
<path fill-rule="evenodd" clip-rule="evenodd" d="M13.999 2.8004H2.001C1.00689 2.8004 0.201004 3.60629 0.201004 4.6004V11.5995C0.201004 12.5936 1.00689 13.3995 2.001 13.3995H13.999C14.9931 13.3995 15.799 12.5936 15.799 11.5995V4.6004C15.799 3.60629 14.9931 2.8004 13.999 2.8004ZM1.401 11.5995V6.78456H14.599V11.5995C14.599 11.9308 14.3304 12.1995 13.999 12.1995H2.001C1.66963 12.1995 1.401 11.9308 1.401 11.5995ZM1.401 5.58456H14.599V4.6004C14.599 4.26903 14.3304 4.0004 13.999 4.0004H2.001C1.66963 4.0004 1.401 4.26903 1.401 4.6004V5.58456Z" fill="black" fill-opacity="0.9"/>
</svg>
