<svg width="20" height="20" viewBox="0 0 20 20" fill="none" xmlns="http://www.w3.org/2000/svg">
<path d="M11.2147 2.7887H8.7926V7.5887H9.9926V6.37603H11.2V5.17603H9.9926V3.9887H11.2147V2.7887Z" fill="black" fill-opacity="0.9"/>
<path d="M11.1926 12.3447V13.5447H9.9926V14.7986H8.7926V11.1986H9.9926V12.3447H11.1926Z" fill="black" fill-opacity="0.9"/>
<path d="M16 15.9922H17.2V17.1922H16V15.9922Z" fill="black" fill-opacity="0.9"/>
<path fill-rule="evenodd" clip-rule="evenodd" d="M10.0147 10.0013V11.183H11.2073V12.3999H12.3779V15.9937H15.9779V14.7733H17.2V13.5733H15.9779V12.3937H12.4073V9.99994H11.2147V7.60132H10.0147V8.80133H7.58527V9.98297H6.36674V8.78729H3.96674V9.95038H2.79999V11.1504H3.99999V9.98729H5.19641V11.183H7.59641V10.0013H10.0147ZM13.5779 13.5937H14.7779V14.7937H13.5779V13.5937Z" fill="black" fill-opacity="0.9"/>
<path d="M16.0332 9.98729H14.8074V11.1937H13.6074V9.98729H12.4332V8.78729H16.0332V9.98729Z" fill="black" fill-opacity="0.9"/>
<path d="M16 9.99994H17.2V12.3999H16V9.99994Z" fill="black" fill-opacity="0.9"/>
<path d="M10.0147 14.8H11.2147V16H12.4148V17.2H8.81476V16H10.0147V14.8Z" fill="black" fill-opacity="0.9"/>
<path fill-rule="evenodd" clip-rule="evenodd" d="M2.79999 2.7887V7.60134H7.56672V2.7887H2.79999ZM6.36672 3.9887H3.99999V6.40134H6.36672V3.9887Z" fill="black" fill-opacity="0.9"/>
<path fill-rule="evenodd" clip-rule="evenodd" d="M2.79999 12.3874H7.56672V17.2H2.79999V12.3874ZM3.99999 13.5874H6.36672V16H3.99999V13.5874Z" fill="black" fill-opacity="0.9"/>
<path fill-rule="evenodd" clip-rule="evenodd" d="M12.4185 2.79102V7.60366H17.1853V2.79102H12.4185ZM15.9853 3.99102H13.6185V6.40366H15.9853V3.99102Z" fill="black" fill-opacity="0.9"/>
</svg>
